<svg xmlns="http://www.w3.org/2000/svg" viewBox="0 0 16 16" shape-rendering="crispEdges">
  <!-- P5P0 Mascot — pixel-perfect copy of src/components/arcade/Mascot.jsx (idle). -->
  <rect width="16" height="16" fill="#000000"/>
  <rect x="3" y="3" width="10" height="9" fill="#00aa00"/>
  <rect x="4" y="5" width="3" height="3" fill="#003300"/>
  <rect x="9" y="5" width="3" height="3" fill="#003300"/>
  <rect x="5" y="5" width="2" height="2" fill="#00ff41"/>
  <rect x="10" y="5" width="2" height="2" fill="#00ff41"/>
  <rect x="4" y="12" width="8" height="4" fill="#004400"/>
  <rect x="7" y="12" width="2" height="4" fill="#ccffdd"/>
  <rect x="7" y="13" width="2" height="3" fill="#00ff41"/>
  <rect x="7" y="13" width="1" height="1" fill="#ccffdd"/>
  <rect x="5" y="12" width="2" height="2" fill="#ccffdd"/>
  <rect x="4" y="12" width="2" height="3" fill="#004400"/>
  <rect x="9" y="12" width="2" height="2" fill="#ccffdd"/>
  <rect x="10" y="12" width="2" height="3" fill="#004400"/>
  <rect x="2" y="12" width="2" height="3" fill="#004400"/>
  <rect x="12" y="12" width="2" height="3" fill="#004400"/>
  <rect x="2" y="14" width="2" height="1" fill="#ccffdd"/>
  <rect x="12" y="14" width="2" height="1" fill="#ccffdd"/>
  <rect x="5" y="15" width="2" height="1" fill="#002200"/>
  <rect x="9" y="15" width="2" height="1" fill="#002200"/>
</svg>
